{
	"asset":{
		"generator":"Khronos glTF Blender I/O v4.3.47",
		"version":"2.0"
	},
	"scene":0,
	"scenes":[
		{
			"name":"Scene",
			"nodes":[
				11
			]
		}
	],
	"nodes":[
		{
			"name":"Tail",
			"rotation":[
				-0.008651979267597198,
				-3.9027784198570736e-16,
				-4.035982556444489e-16,
				0.999962568283081
			],
			"scale":[
				1,
				1,
				0.9999999403953552
			],
			"translation":[
				4.1359030627651384e-23,
				0.7486331462860107,
				8.381903171539307e-09
			]
		},
		{
			"name":"Arm.L",
			"rotation":[
				0.012761589139699936,
				-0.008218356408178806,
				-0.20052798092365265,
				0.9795703887939453
			],
			"scale":[
				1.0000001192092896,
				1,
				1
			],
			"translation":[
				0.6765822768211365,
				0.008596673607826233,
				-0.0055047087371349335
			]
		},
		{
			"name":"Arm.R",
			"rotation":[
				0.012064334005117416,
				0.007110188715159893,
				0.2647480070590973,
				0.9642159342765808
			],
			"scale":[
				1,
				1,
				1.0000001192092896
			],
			"translation":[
				-0.7089333534240723,
				0.00869741477072239,
				-0.0051734838634729385
			]
		},
		{
			"children":[
				0,
				1,
				2
			],
			"name":"spine",
			"rotation":[
				-0.0144264604896307,
				1.078454524542792e-16,
				1.078454524542792e-16,
				0.9998959302902222
			],
			"scale":[
				0.9999999403953552,
				0.9999999403953552,
				1
			],
			"translation":[
				1.6378600968512555e-16,
				0.2516784965991974,
				0.021598011255264282
			]
		},
		{
			"name":"head",
			"rotation":[
				9.612215762899723e-06,
				-0.0023337455932050943,
				-0.9999973177909851,
				2.243278807156912e-08
			],
			"scale":[
				0.9999999403953552,
				1.000000238418579,
				0.9999999403953552
			],
			"translation":[
				1.6378600968512555e-16,
				0.2516784965991974,
				0.021598011255264282
			]
		},
		{
			"mesh":0,
			"name":"Cube",
			"skin":0
		},
		{
			"mesh":1,
			"name":"Cube.001",
			"skin":0
		},
		{
			"mesh":2,
			"name":"Cube.002",
			"skin":0
		},
		{
			"mesh":3,
			"name":"Cube.003",
			"skin":0
		},
		{
			"mesh":4,
			"name":"Cube.008",
			"skin":0
		},
		{
			"mesh":5,
			"name":"Sphere",
			"skin":0
		},
		{
			"children":[
				5,
				6,
				7,
				8,
				9,
				10,
				3,
				4
			],
			"name":"Armature",
			"rotation":[
				-0.706506609916687,
				0,
				0,
				0.7077064514160156
			],
			"scale":[
				0.6021411418914795,
				1.6585668325424194,
				1.0013104677200317
			],
			"translation":[
				0,
				0.09193991869688034,
				0.906265139579773
			]
		}
	],
	"animations":[
		{
			"channels":[
				{
					"sampler":0,
					"target":{
						"node":3,
						"path":"translation"
					}
				},
				{
					"sampler":1,
					"target":{
						"node":3,
						"path":"rotation"
					}
				},
				{
					"sampler":2,
					"target":{
						"node":3,
						"path":"scale"
					}
				},
				{
					"sampler":3,
					"target":{
						"node":0,
						"path":"translation"
					}
				},
				{
					"sampler":4,
					"target":{
						"node":0,
						"path":"rotation"
					}
				},
				{
					"sampler":5,
					"target":{
						"node":0,
						"path":"scale"
					}
				},
				{
					"sampler":6,
					"target":{
						"node":1,
						"path":"translation"
					}
				},
				{
					"sampler":7,
					"target":{
						"node":1,
						"path":"rotation"
					}
				},
				{
					"sampler":8,
					"target":{
						"node":1,
						"path":"scale"
					}
				},
				{
					"sampler":9,
					"target":{
						"node":2,
						"path":"translation"
					}
				},
				{
					"sampler":10,
					"target":{
						"node":2,
						"path":"rotation"
					}
				},
				{
					"sampler":11,
					"target":{
						"node":2,
						"path":"scale"
					}
				},
				{
					"sampler":12,
					"target":{
						"node":4,
						"path":"translation"
					}
				},
				{
					"sampler":13,
					"target":{
						"node":4,
						"path":"rotation"
					}
				},
				{
					"sampler":14,
					"target":{
						"node":4,
						"path":"scale"
					}
				}
			],
			"name":"ArmatureAction.001",
			"samplers":[
				{
					"input":37,
					"interpolation":"STEP",
					"output":38
				},
				{
					"input":39,
					"interpolation":"LINEAR",
					"output":40
				},
				{
					"input":37,
					"interpolation":"STEP",
					"output":41
				},
				{
					"input":37,
					"interpolation":"STEP",
					"output":42
				},
				{
					"input":39,
					"interpolation":"LINEAR",
					"output":43
				},
				{
					"input":37,
					"interpolation":"STEP",
					"output":44
				},
				{
					"input":37,
					"interpolation":"STEP",
					"output":45
				},
				{
					"input":37,
					"interpolation":"LINEAR",
					"output":46
				},
				{
					"input":37,
					"interpolation":"STEP",
					"output":47
				},
				{
					"input":37,
					"interpolation":"STEP",
					"output":48
				},
				{
					"input":39,
					"interpolation":"LINEAR",
					"output":49
				},
				{
					"input":37,
					"interpolation":"STEP",
					"output":50
				},
				{
					"input":37,
					"interpolation":"STEP",
					"output":51
				},
				{
					"input":37,
					"interpolation":"STEP",
					"output":52
				},
				{
					"input":37,
					"interpolation":"STEP",
					"output":53
				}
			]
		}
	],
	"materials":[
		{
			"doubleSided":true,
			"name":"Material.001",
			"pbrMetallicRoughness":{
				"baseColorFactor":[
					0.36723047494888306,
					0.34423092007637024,
					0.42475610971450806,
					1
				],
				"metallicFactor":0,
				"roughnessFactor":0.5
			}
		},
		{
			"doubleSided":true,
			"name":"Material.002",
			"pbrMetallicRoughness":{
				"baseColorFactor":[
					0.1879604309797287,
					0.07319135963916779,
					0.8014277219772339,
					1
				],
				"metallicFactor":0,
				"roughnessFactor":0.5
			}
		},
		{
			"doubleSided":true,
			"name":"Material.003",
			"pbrMetallicRoughness":{
				"baseColorFactor":[
					0.1879604309797287,
					0.07319135963916779,
					0.8014277219772339,
					1
				],
				"metallicFactor":0,
				"roughnessFactor":0.5
			}
		},
		{
			"doubleSided":true,
			"name":"Material.005",
			"pbrMetallicRoughness":{
				"baseColorFactor":[
					0.800000011920929,
					0.800000011920929,
					0.800000011920929,
					1
				],
				"metallicFactor":0,
				"roughnessFactor":0.5
			}
		},
		{
			"doubleSided":true,
			"name":"Material.004",
			"pbrMetallicRoughness":{
				"baseColorTexture":{
					"index":0
				},
				"metallicFactor":0,
				"roughnessFactor":0.5
			}
		}
	],
	"meshes":[
		{
			"name":"Cube.002",
			"primitives":[
				{
					"attributes":{
						"POSITION":0,
						"NORMAL":1,
						"TEXCOORD_0":2,
						"JOINTS_0":3,
						"WEIGHTS_0":4
					},
					"indices":5,
					"material":0
				}
			]
		},
		{
			"name":"Cube.003",
			"primitives":[
				{
					"attributes":{
						"POSITION":7,
						"NORMAL":8,
						"TEXCOORD_0":9,
						"JOINTS_0":10,
						"WEIGHTS_0":11
					},
					"indices":12,
					"material":1
				}
			]
		},
		{
			"name":"Cube.004",
			"primitives":[
				{
					"attributes":{
						"POSITION":13,
						"NORMAL":14,
						"TEXCOORD_0":15,
						"JOINTS_0":16,
						"WEIGHTS_0":17
					},
					"indices":18,
					"material":2
				}
			]
		},
		{
			"name":"Cube.005",
			"primitives":[
				{
					"attributes":{
						"POSITION":19,
						"NORMAL":20,
						"TEXCOORD_0":21,
						"JOINTS_0":22,
						"WEIGHTS_0":23
					},
					"indices":24,
					"material":3
				}
			]
		},
		{
			"name":"Cube.009",
			"primitives":[
				{
					"attributes":{
						"POSITION":25,
						"NORMAL":26,
						"TEXCOORD_0":27,
						"JOINTS_0":28,
						"WEIGHTS_0":29
					},
					"indices":30,
					"material":3
				}
			]
		},
		{
			"name":"Sphere.001",
			"primitives":[
				{
					"attributes":{
						"POSITION":31,
						"NORMAL":32,
						"TEXCOORD_0":33,
						"JOINTS_0":34,
						"WEIGHTS_0":35
					},
					"indices":36,
					"material":4
				}
			]
		}
	],
	"textures":[
		{
			"sampler":0,
			"source":0
		}
	],
	"images":[
		{
			"mimeType":"image/png",
			"name":"eye",
			"uri":"eye.png"
		}
	],
	"skins":[
		{
			"inverseBindMatrices":6,
			"joints":[
				3,
				0,
				1,
				2,
				4
			],
			"name":"Armature"
		}
	],
	"accessors":[
		{
			"bufferView":0,
			"componentType":5126,
			"count":44,
			"max":[
				0.4823305010795593,
				0.8983514308929443,
				1.467032551765442
			],
			"min":[
				-0.4823305010795593,
				-0.8394182324409485,
				-1.0439444780349731
			],
			"type":"VEC3"
		},
		{
			"bufferView":1,
			"componentType":5126,
			"count":44,
			"type":"VEC3"
		},
		{
			"bufferView":2,
			"componentType":5126,
			"count":44,
			"type":"VEC2"
		},
		{
			"bufferView":3,
			"componentType":5121,
			"count":44,
			"type":"VEC4"
		},
		{
			"bufferView":4,
			"componentType":5126,
			"count":44,
			"type":"VEC4"
		},
		{
			"bufferView":5,
			"componentType":5123,
			"count":156,
			"type":"SCALAR"
		},
		{
			"bufferView":6,
			"componentType":5126,
			"count":5,
			"type":"MAT4"
		},
		{
			"bufferView":7,
			"componentType":5126,
			"count":161,
			"max":[
				0.18540585041046143,
				0.6628817915916443,
				-0.874691903591156
			],
			"min":[
				-0.14732538163661957,
				-0.6496550440788269,
				-1.6965075731277466
			],
			"type":"VEC3"
		},
		{
			"bufferView":8,
			"componentType":5126,
			"count":161,
			"type":"VEC3"
		},
		{
			"bufferView":9,
			"componentType":5126,
			"count":161,
			"type":"VEC2"
		},
		{
			"bufferView":10,
			"componentType":5121,
			"count":161,
			"type":"VEC4"
		},
		{
			"bufferView":11,
			"componentType":5126,
			"count":161,
			"type":"VEC4"
		},
		{
			"bufferView":12,
			"componentType":5123,
			"count":804,
			"type":"SCALAR"
		},
		{
			"bufferView":13,
			"componentType":5126,
			"count":108,
			"max":[
				0.05341724306344986,
				1.2479737997055054,
				0.9725152254104614
			],
			"min":[
				-0.09413596242666245,
				0.2001611590385437,
				-0.48309099674224854
			],
			"type":"VEC3"
		},
		{
			"bufferView":14,
			"componentType":5126,
			"count":108,
			"type":"VEC3"
		},
		{
			"bufferView":15,
			"componentType":5126,
			"count":108,
			"type":"VEC2"
		},
		{
			"bufferView":16,
			"componentType":5121,
			"count":108,
			"type":"VEC4"
		},
		{
			"bufferView":17,
			"componentType":5126,
			"count":108,
			"type":"VEC4"
		},
		{
			"bufferView":18,
			"componentType":5123,
			"count":504,
			"type":"SCALAR"
		},
		{
			"bufferView":19,
			"componentType":5126,
			"count":65,
			"max":[
				-0.39661726355552673,
				0.5091728568077087,
				0.5519469976425171
			],
			"min":[
				-0.5714899897575378,
				-0.2619923949241638,
				-0.051174309104681015
			],
			"type":"VEC3"
		},
		{
			"bufferView":20,
			"componentType":5126,
			"count":65,
			"type":"VEC3"
		},
		{
			"bufferView":21,
			"componentType":5126,
			"count":65,
			"type":"VEC2"
		},
		{
			"bufferView":22,
			"componentType":5121,
			"count":65,
			"type":"VEC4"
		},
		{
			"bufferView":23,
			"componentType":5126,
			"count":65,
			"type":"VEC4"
		},
		{
			"bufferView":24,
			"componentType":5123,
			"count":288,
			"type":"SCALAR"
		},
		{
			"bufferView":25,
			"componentType":5126,
			"count":65,
			"max":[
				0.5714900493621826,
				0.5091728568077087,
				0.5519469380378723
			],
			"min":[
				0.39661726355552673,
				-0.26199230551719666,
				-0.051174283027648926
			],
			"type":"VEC3"
		},
		{
			"bufferView":26,
			"componentType":5126,
			"count":65,
			"type":"VEC3"
		},
		{
			"bufferView":27,
			"componentType":5126,
			"count":65,
			"type":"VEC2"
		},
		{
			"bufferView":28,
			"componentType":5121,
			"count":65,
			"type":"VEC4"
		},
		{
			"bufferView":29,
			"componentType":5126,
			"count":65,
			"type":"VEC4"
		},
		{
			"bufferView":30,
			"componentType":5123,
			"count":288,
			"type":"SCALAR"
		},
		{
			"bufferView":31,
			"componentType":5126,
			"count":16498,
			"max":[
				0.2912850081920624,
				0.3256894648075104,
				1.2354155778884888
			],
			"min":[
				-0.29128506779670715,
				-0.04097459092736244,
				1.002928614616394
			],
			"type":"VEC3"
		},
		{
			"bufferView":32,
			"componentType":5126,
			"count":16498,
			"type":"VEC3"
		},
		{
			"bufferView":33,
			"componentType":5126,
			"count":16498,
			"type":"VEC2"
		},
		{
			"bufferView":34,
			"componentType":5121,
			"count":16498,
			"type":"VEC4"
		},
		{
			"bufferView":35,
			"componentType":5126,
			"count":16498,
			"type":"VEC4"
		},
		{
			"bufferView":36,
			"componentType":5123,
			"count":95232,
			"type":"SCALAR"
		},
		{
			"bufferView":37,
			"componentType":5126,
			"count":2,
			"max":[
				1.5416666666666667
			],
			"min":[
				0.041666666666666664
			],
			"type":"SCALAR"
		},
		{
			"bufferView":38,
			"componentType":5126,
			"count":2,
			"type":"VEC3"
		},
		{
			"bufferView":39,
			"componentType":5126,
			"count":37,
			"max":[
				1.5416666666666667
			],
			"min":[
				0.041666666666666664
			],
			"type":"SCALAR"
		},
		{
			"bufferView":40,
			"componentType":5126,
			"count":37,
			"type":"VEC4"
		},
		{
			"bufferView":41,
			"componentType":5126,
			"count":2,
			"type":"VEC3"
		},
		{
			"bufferView":42,
			"componentType":5126,
			"count":2,
			"type":"VEC3"
		},
		{
			"bufferView":43,
			"componentType":5126,
			"count":37,
			"type":"VEC4"
		},
		{
			"bufferView":44,
			"componentType":5126,
			"count":2,
			"type":"VEC3"
		},
		{
			"bufferView":45,
			"componentType":5126,
			"count":2,
			"type":"VEC3"
		},
		{
			"bufferView":46,
			"componentType":5126,
			"count":2,
			"type":"VEC4"
		},
		{
			"bufferView":47,
			"componentType":5126,
			"count":2,
			"type":"VEC3"
		},
		{
			"bufferView":48,
			"componentType":5126,
			"count":2,
			"type":"VEC3"
		},
		{
			"bufferView":49,
			"componentType":5126,
			"count":37,
			"type":"VEC4"
		},
		{
			"bufferView":50,
			"componentType":5126,
			"count":2,
			"type":"VEC3"
		},
		{
			"bufferView":51,
			"componentType":5126,
			"count":2,
			"type":"VEC3"
		},
		{
			"bufferView":52,
			"componentType":5126,
			"count":2,
			"type":"VEC4"
		},
		{
			"bufferView":53,
			"componentType":5126,
			"count":2,
			"type":"VEC3"
		}
	],
	"bufferViews":[
		{
			"buffer":0,
			"byteLength":528,
			"byteOffset":0,
			"target":34962
		},
		{
			"buffer":0,
			"byteLength":528,
			"byteOffset":528,
			"target":34962
		},
		{
			"buffer":0,
			"byteLength":352,
			"byteOffset":1056,
			"target":34962
		},
		{
			"buffer":0,
			"byteLength":176,
			"byteOffset":1408,
			"target":34962
		},
		{
			"buffer":0,
			"byteLength":704,
			"byteOffset":1584,
			"target":34962
		},
		{
			"buffer":0,
			"byteLength":312,
			"byteOffset":2288,
			"target":34963
		},
		{
			"buffer":0,
			"byteLength":320,
			"byteOffset":2600
		},
		{
			"buffer":0,
			"byteLength":1932,
			"byteOffset":2920,
			"target":34962
		},
		{
			"buffer":0,
			"byteLength":1932,
			"byteOffset":4852,
			"target":34962
		},
		{
			"buffer":0,
			"byteLength":1288,
			"byteOffset":6784,
			"target":34962
		},
		{
			"buffer":0,
			"byteLength":644,
			"byteOffset":8072,
			"target":34962
		},
		{
			"buffer":0,
			"byteLength":2576,
			"byteOffset":8716,
			"target":34962
		},
		{
			"buffer":0,
			"byteLength":1608,
			"byteOffset":11292,
			"target":34963
		},
		{
			"buffer":0,
			"byteLength":1296,
			"byteOffset":12900,
			"target":34962
		},
		{
			"buffer":0,
			"byteLength":1296,
			"byteOffset":14196,
			"target":34962
		},
		{
			"buffer":0,
			"byteLength":864,
			"byteOffset":15492,
			"target":34962
		},
		{
			"buffer":0,
			"byteLength":432,
			"byteOffset":16356,
			"target":34962
		},
		{
			"buffer":0,
			"byteLength":1728,
			"byteOffset":16788,
			"target":34962
		},
		{
			"buffer":0,
			"byteLength":1008,
			"byteOffset":18516,
			"target":34963
		},
		{
			"buffer":0,
			"byteLength":780,
			"byteOffset":19524,
			"target":34962
		},
		{
			"buffer":0,
			"byteLength":780,
			"byteOffset":20304,
			"target":34962
		},
		{
			"buffer":0,
			"byteLength":520,
			"byteOffset":21084,
			"target":34962
		},
		{
			"buffer":0,
			"byteLength":260,
			"byteOffset":21604,
			"target":34962
		},
		{
			"buffer":0,
			"byteLength":1040,
			"byteOffset":21864,
			"target":34962
		},
		{
			"buffer":0,
			"byteLength":576,
			"byteOffset":22904,
			"target":34963
		},
		{
			"buffer":0,
			"byteLength":780,
			"byteOffset":23480,
			"target":34962
		},
		{
			"buffer":0,
			"byteLength":780,
			"byteOffset":24260,
			"target":34962
		},
		{
			"buffer":0,
			"byteLength":520,
			"byteOffset":25040,
			"target":34962
		},
		{
			"buffer":0,
			"byteLength":260,
			"byteOffset":25560,
			"target":34962
		},
		{
			"buffer":0,
			"byteLength":1040,
			"byteOffset":25820,
			"target":34962
		},
		{
			"buffer":0,
			"byteLength":576,
			"byteOffset":26860,
			"target":34963
		},
		{
			"buffer":0,
			"byteLength":197976,
			"byteOffset":27436,
			"target":34962
		},
		{
			"buffer":0,
			"byteLength":197976,
			"byteOffset":225412,
			"target":34962
		},
		{
			"buffer":0,
			"byteLength":131984,
			"byteOffset":423388,
			"target":34962
		},
		{
			"buffer":0,
			"byteLength":65992,
			"byteOffset":555372,
			"target":34962
		},
		{
			"buffer":0,
			"byteLength":263968,
			"byteOffset":621364,
			"target":34962
		},
		{
			"buffer":0,
			"byteLength":190464,
			"byteOffset":885332,
			"target":34963
		},
		{
			"buffer":0,
			"byteLength":8,
			"byteOffset":1075796
		},
		{
			"buffer":0,
			"byteLength":24,
			"byteOffset":1075804
		},
		{
			"buffer":0,
			"byteLength":148,
			"byteOffset":1075828
		},
		{
			"buffer":0,
			"byteLength":592,
			"byteOffset":1075976
		},
		{
			"buffer":0,
			"byteLength":24,
			"byteOffset":1076568
		},
		{
			"buffer":0,
			"byteLength":24,
			"byteOffset":1076592
		},
		{
			"buffer":0,
			"byteLength":592,
			"byteOffset":1076616
		},
		{
			"buffer":0,
			"byteLength":24,
			"byteOffset":1077208
		},
		{
			"buffer":0,
			"byteLength":24,
			"byteOffset":1077232
		},
		{
			"buffer":0,
			"byteLength":32,
			"byteOffset":1077256
		},
		{
			"buffer":0,
			"byteLength":24,
			"byteOffset":1077288
		},
		{
			"buffer":0,
			"byteLength":24,
			"byteOffset":1077312
		},
		{
			"buffer":0,
			"byteLength":592,
			"byteOffset":1077336
		},
		{
			"buffer":0,
			"byteLength":24,
			"byteOffset":1077928
		},
		{
			"buffer":0,
			"byteLength":24,
			"byteOffset":1077952
		},
		{
			"buffer":0,
			"byteLength":32,
			"byteOffset":1077976
		},
		{
			"buffer":0,
			"byteLength":24,
			"byteOffset":1078008
		}
	],
	"samplers":[
		{
			"magFilter":9729,
			"minFilter":9987
		}
	],
	"buffers":[
		{
			"byteLength":1078032,
			"uri":"fish.bin"
		}
	]
}
