{
	"asset":{
		"generator":"Khronos glTF Blender I/O v4.3.47",
		"version":"2.0"
	},
	"scene":0,
	"scenes":[
		{
			"name":"Scene",
			"nodes":[
				0,
				1,
				2,
				3,
				4,
				5
			]
		}
	],
	"nodes":[
		{
			"mesh":0,
			"name":"Cube",
			"scale":[
				1,
				0.7362731695175171,
				1
			],
			"translation":[
				0,
				0.030263423919677734,
				0
			]
		},
		{
			"mesh":1,
			"name":"Sphere",
			"rotation":[
				-0.16726450622081757,
				-0.1803293526172638,
				0.7881841659545898,
				0.5641540884971619
			],
			"scale":[
				0.18940800428390503,
				0.13944712281227112,
				0.20888695120811462
			],
			"translation":[
				0.3232015073299408,
				0.14211879670619965,
				1.259791374206543
			]
		},
		{
			"mesh":2,
			"name":"Cube.001",
			"scale":[
				0.2762346565723419,
				0.8420116305351257,
				1.2702327966690063
			],
			"translation":[
				0.031620875000953674,
				0.030388373881578445,
				-3.556171178817749
			]
		},
		{
			"mesh":3,
			"name":"Cube.002",
			"rotation":[
				0.6467159986495972,
				0.11887960880994797,
				0.036156728863716125,
				0.7525415420532227
			],
			"scale":[
				0.10450168699026108,
				1.0083889961242676,
				1.4906600713729858
			],
			"translation":[
				-0.2889590859413147,
				1.3958162069320679,
				-0.3364424407482147
			]
		},
		{
			"mesh":4,
			"name":"Cube.003",
			"rotation":[
				0,
				-0.06871326267719269,
				0,
				0.9976364374160767
			],
			"scale":[
				0.11241958290338516,
				0.5245165824890137,
				0.5242307782173157
			],
			"translation":[
				-0.7608602643013,
				0.13455979526042938,
				-0.11298733949661255
			]
		},
		{
			"mesh":5,
			"name":"Cube.008",
			"rotation":[
				0,
				-0.06871326267719269,
				0,
				0.9976364374160767
			],
			"scale":[
				0.11241958290338516,
				0.5245165824890137,
				0.5242307782173157
			],
			"translation":[
				0.7658655047416687,
				0.14012694358825684,
				-0.1491505652666092
			]
		}
	],
	"materials":[
		{
			"doubleSided":true,
			"name":"Material.001",
			"pbrMetallicRoughness":{
				"baseColorFactor":[
					0.36723047494888306,
					0.34423092007637024,
					0.42475610971450806,
					1
				],
				"metallicFactor":0,
				"roughnessFactor":0.5
			}
		},
		{
			"doubleSided":true,
			"name":"Material.004",
			"pbrMetallicRoughness":{
				"baseColorTexture":{
					"index":0
				},
				"metallicFactor":0,
				"roughnessFactor":0.5
			}
		},
		{
			"doubleSided":true,
			"name":"Material.002",
			"pbrMetallicRoughness":{
				"baseColorFactor":[
					0.1879604309797287,
					0.07319135963916779,
					0.8014277219772339,
					1
				],
				"metallicFactor":0,
				"roughnessFactor":0.5
			}
		},
		{
			"doubleSided":true,
			"name":"Material.003",
			"pbrMetallicRoughness":{
				"baseColorFactor":[
					0.1879604309797287,
					0.07319135963916779,
					0.8014277219772339,
					1
				],
				"metallicFactor":0,
				"roughnessFactor":0.5
			}
		},
		{
			"doubleSided":true,
			"name":"Material.005",
			"pbrMetallicRoughness":{
				"baseColorFactor":[
					0.800000011920929,
					0.800000011920929,
					0.800000011920929,
					1
				],
				"metallicFactor":0,
				"roughnessFactor":0.5
			}
		}
	],
	"meshes":[
		{
			"name":"Cube.002",
			"primitives":[
				{
					"attributes":{
						"POSITION":0,
						"NORMAL":1,
						"TEXCOORD_0":2
					},
					"indices":3,
					"material":0
				}
			]
		},
		{
			"name":"Sphere.001",
			"primitives":[
				{
					"attributes":{
						"POSITION":4,
						"NORMAL":5,
						"TEXCOORD_0":6
					},
					"indices":7,
					"material":1
				}
			]
		},
		{
			"name":"Cube.003",
			"primitives":[
				{
					"attributes":{
						"POSITION":8,
						"NORMAL":9,
						"TEXCOORD_0":10
					},
					"indices":11,
					"material":2
				}
			]
		},
		{
			"name":"Cube.004",
			"primitives":[
				{
					"attributes":{
						"POSITION":12,
						"NORMAL":13,
						"TEXCOORD_0":14
					},
					"indices":15,
					"material":3
				}
			]
		},
		{
			"name":"Cube.005",
			"primitives":[
				{
					"attributes":{
						"POSITION":16,
						"NORMAL":17,
						"TEXCOORD_0":18
					},
					"indices":19,
					"material":4
				}
			]
		},
		{
			"name":"Cube.009",
			"primitives":[
				{
					"attributes":{
						"POSITION":20,
						"NORMAL":21,
						"TEXCOORD_0":22
					},
					"indices":23,
					"material":4
				}
			]
		}
	],
	"textures":[
		{
			"sampler":0,
			"source":0
		}
	],
	"images":[
		{
			"mimeType":"image/png",
			"name":"eye",
			"uri":"eye.png"
		}
	],
	"accessors":[
		{
			"bufferView":0,
			"componentType":5126,
			"count":1905,
			"max":[
				0.7175703048706055,
				1.0409680604934692,
				1.785081148147583
			],
			"min":[
				-0.7175703048706055,
				-1.0409660339355469,
				-2.3310298919677734
			],
			"type":"VEC3"
		},
		{
			"bufferView":1,
			"componentType":5126,
			"count":1905,
			"type":"VEC3"
		},
		{
			"bufferView":2,
			"componentType":5126,
			"count":1905,
			"type":"VEC2"
		},
		{
			"bufferView":3,
			"componentType":5123,
			"count":9984,
			"type":"SCALAR"
		},
		{
			"bufferView":4,
			"componentType":5126,
			"count":16498,
			"max":[
				1.9860457181930542,
				5.227192401885986,
				2.2452471256256104
			],
			"min":[
				-0.9872305393218994,
				-0.9975767135620117,
				-0.9872310161590576
			],
			"type":"VEC3"
		},
		{
			"bufferView":5,
			"componentType":5126,
			"count":16498,
			"type":"VEC3"
		},
		{
			"bufferView":6,
			"componentType":5126,
			"count":16498,
			"type":"VEC2"
		},
		{
			"bufferView":7,
			"componentType":5123,
			"count":95232,
			"type":"SCALAR"
		},
		{
			"bufferView":8,
			"componentType":5126,
			"count":2391,
			"max":[
				0.9586484432220459,
				0.7258465886116028,
				1.1263456344604492
			],
			"min":[
				-0.9586485624313354,
				-0.78318852186203,
				0.12706251442432404
			],
			"type":"VEC3"
		},
		{
			"bufferView":9,
			"componentType":5126,
			"count":2391,
			"type":"VEC3"
		},
		{
			"bufferView":10,
			"componentType":5126,
			"count":2391,
			"type":"VEC2"
		},
		{
			"bufferView":11,
			"componentType":5123,
			"count":12864,
			"type":"SCALAR"
		},
		{
			"bufferView":12,
			"componentType":5126,
			"count":1547,
			"max":[
				2.6003551483154297,
				1.174696922302246,
				0.7923651933670044
			],
			"min":[
				-2.106668710708618,
				-0.9225947260856628,
				0.17513355612754822
			],
			"type":"VEC3"
		},
		{
			"bufferView":13,
			"componentType":5126,
			"count":1547,
			"type":"VEC3"
		},
		{
			"bufferView":14,
			"componentType":5126,
			"count":1547,
			"type":"VEC2"
		},
		{
			"bufferView":15,
			"componentType":5123,
			"count":8064,
			"type":"SCALAR"
		},
		{
			"bufferView":16,
			"componentType":5126,
			"count":908,
			"max":[
				1.182361364364624,
				0.6760388612747192,
				0.7540921568870544
			],
			"min":[
				-1.886362075805664,
				-0.7047691345214844,
				-0.9796250462532043
			],
			"type":"VEC3"
		},
		{
			"bufferView":17,
			"componentType":5126,
			"count":908,
			"type":"VEC3"
		},
		{
			"bufferView":18,
			"componentType":5126,
			"count":908,
			"type":"VEC2"
		},
		{
			"bufferView":19,
			"componentType":5123,
			"count":4608,
			"type":"SCALAR"
		},
		{
			"bufferView":20,
			"componentType":5126,
			"count":908,
			"max":[
				0.8854808211326599,
				0.6654248833656311,
				0.8572503924369812
			],
			"min":[
				-0.875173032283783,
				-0.7153829336166382,
				-0.9420446157455444
			],
			"type":"VEC3"
		},
		{
			"bufferView":21,
			"componentType":5126,
			"count":908,
			"type":"VEC3"
		},
		{
			"bufferView":22,
			"componentType":5126,
			"count":908,
			"type":"VEC2"
		},
		{
			"bufferView":23,
			"componentType":5123,
			"count":4608,
			"type":"SCALAR"
		}
	],
	"bufferViews":[
		{
			"buffer":0,
			"byteLength":22860,
			"byteOffset":0,
			"target":34962
		},
		{
			"buffer":0,
			"byteLength":22860,
			"byteOffset":22860,
			"target":34962
		},
		{
			"buffer":0,
			"byteLength":15240,
			"byteOffset":45720,
			"target":34962
		},
		{
			"buffer":0,
			"byteLength":19968,
			"byteOffset":60960,
			"target":34963
		},
		{
			"buffer":0,
			"byteLength":197976,
			"byteOffset":80928,
			"target":34962
		},
		{
			"buffer":0,
			"byteLength":197976,
			"byteOffset":278904,
			"target":34962
		},
		{
			"buffer":0,
			"byteLength":131984,
			"byteOffset":476880,
			"target":34962
		},
		{
			"buffer":0,
			"byteLength":190464,
			"byteOffset":608864,
			"target":34963
		},
		{
			"buffer":0,
			"byteLength":28692,
			"byteOffset":799328,
			"target":34962
		},
		{
			"buffer":0,
			"byteLength":28692,
			"byteOffset":828020,
			"target":34962
		},
		{
			"buffer":0,
			"byteLength":19128,
			"byteOffset":856712,
			"target":34962
		},
		{
			"buffer":0,
			"byteLength":25728,
			"byteOffset":875840,
			"target":34963
		},
		{
			"buffer":0,
			"byteLength":18564,
			"byteOffset":901568,
			"target":34962
		},
		{
			"buffer":0,
			"byteLength":18564,
			"byteOffset":920132,
			"target":34962
		},
		{
			"buffer":0,
			"byteLength":12376,
			"byteOffset":938696,
			"target":34962
		},
		{
			"buffer":0,
			"byteLength":16128,
			"byteOffset":951072,
			"target":34963
		},
		{
			"buffer":0,
			"byteLength":10896,
			"byteOffset":967200,
			"target":34962
		},
		{
			"buffer":0,
			"byteLength":10896,
			"byteOffset":978096,
			"target":34962
		},
		{
			"buffer":0,
			"byteLength":7264,
			"byteOffset":988992,
			"target":34962
		},
		{
			"buffer":0,
			"byteLength":9216,
			"byteOffset":996256,
			"target":34963
		},
		{
			"buffer":0,
			"byteLength":10896,
			"byteOffset":1005472,
			"target":34962
		},
		{
			"buffer":0,
			"byteLength":10896,
			"byteOffset":1016368,
			"target":34962
		},
		{
			"buffer":0,
			"byteLength":7264,
			"byteOffset":1027264,
			"target":34962
		},
		{
			"buffer":0,
			"byteLength":9216,
			"byteOffset":1034528,
			"target":34963
		}
	],
	"samplers":[
		{
			"magFilter":9729,
			"minFilter":9987
		}
	],
	"buffers":[
		{
			"byteLength":1043744,
			"uri":"fish.bin"
		}
	]
}
